<svg width="45" height="43" viewBox="0 0 45 43" fill="none" xmlns="http://www.w3.org/2000/svg">
<path d="M14.1086 42.4644C13.5234 42.4644 12.9172 42.3203 12.3737 42.0321C11.1823 41.4146 10.4508 40.1796 10.4508 38.8622V35.9395C4.13852 35.3014 0 30.7316 0 24.1859V11.8357C0 4.75486 4.82828 0 12.0184 0H32.9201C40.1102 0 44.9385 4.75486 44.9385 11.8357V24.1859C44.9385 31.2668 40.1102 36.0216 32.9201 36.0216H25.0402L16.136 41.8676C15.5299 42.2587 14.8193 42.4644 14.1086 42.4644ZM12.0184 3.06697C6.62582 3.06697 3.13525 6.50447 3.13525 11.8151V24.1655C3.13525 29.4762 6.62582 32.9137 12.0184 32.9137C12.8754 32.9137 13.5861 33.6135 13.5861 34.4575V38.8418C13.5861 39.1094 13.7533 39.2329 13.8578 39.2947C13.9623 39.3564 14.1713 39.4182 14.4012 39.2741L23.7025 33.1813C23.9533 33.0166 24.2668 32.9137 24.5803 32.9137H32.941C38.3336 32.9137 41.8242 29.4762 41.8242 24.1655V11.8151C41.8242 6.50447 38.3336 3.06697 32.941 3.06697H12.0184Z" fill="black"/>
<path d="M22.4684 21.4485C21.6114 21.4485 20.9007 20.7487 20.9007 19.9047V19.4725C20.9007 17.0848 22.6774 15.9115 23.3462 15.4586C24.1196 14.944 24.3704 14.5941 24.3704 14.0589C24.3704 13.0297 23.5134 12.1857 22.4684 12.1857C21.4233 12.1857 20.5663 13.0297 20.5663 14.0589C20.5663 14.9029 19.8557 15.6027 18.9987 15.6027C18.1418 15.6027 17.4312 14.9029 17.4312 14.0589C17.4312 11.3213 19.6884 9.09814 22.4684 9.09814C25.2483 9.09814 27.5057 11.3213 27.5057 14.0589C27.5057 16.4055 25.7499 17.5788 25.102 18.011C24.2868 18.5462 24.036 18.8961 24.036 19.4725V19.9047C24.036 20.7693 23.3253 21.4485 22.4684 21.4485Z" fill="black"/>
<path d="M22.469 26.5743C21.5911 26.5743 20.9014 25.8744 20.9014 25.0305C20.9014 24.1865 21.612 23.4867 22.469 23.4867C23.326 23.4867 24.0366 24.1865 24.0366 25.0305C24.0366 25.8744 23.3469 26.5743 22.469 26.5743Z" fill="black"/>
</svg>
